<svg width="31" height="30" viewBox="0 0 31 30" fill="none" xmlns="http://www.w3.org/2000/svg">
<rect width="31" height="30" rx="15" fill="#EC362D"/>
<path d="M15.3342 8.01137L15.5 8C15.7945 8.00001 16.0791 8.10667 16.301 8.30025C16.523 8.49382 16.6673 8.76123 16.7074 9.053L16.7188 9.21875V13.2796L20.7812 13.2812C21.0758 13.2813 21.3603 13.3879 21.5823 13.5815C21.8042 13.7751 21.9486 14.0425 21.9886 14.3342L22 14.5C22 14.7945 21.8933 15.0791 21.6998 15.301C21.5062 15.523 21.2388 15.6673 20.947 15.7074L20.7812 15.7188L16.7188 15.7171V19.7812C16.7187 20.0758 16.6121 20.3603 16.4185 20.5823C16.2249 20.8042 15.9575 20.9486 15.6658 20.9886L15.5 21C15.2055 21 14.9209 20.8933 14.699 20.6998C14.477 20.5062 14.3327 20.2388 14.2926 19.947L14.2812 19.7812V15.7171L10.2188 15.7188C9.92424 15.7187 9.63969 15.6121 9.41774 15.4185C9.19578 15.2249 9.05143 14.9575 9.01137 14.6658L9 14.5C9.00001 14.2055 9.10667 13.9209 9.30025 13.699C9.49382 13.477 9.76123 13.3327 10.053 13.2926L10.2188 13.2812L14.2812 13.2796V9.21875C14.2813 8.92424 14.3879 8.63969 14.5815 8.41774C14.7751 8.19578 15.0425 8.05143 15.3342 8.01137L15.5 8L15.3342 8.01137Z" fill="white"/>
</svg>
